<?xml version="1.0" encoding="utf-8"?>
<!-- Generator: Adobe Illustrator 18.1.1, SVG Export Plug-In . SVG Version: 6.00 Build 0)  -->
<!DOCTYPE svg PUBLIC "-//W3C//DTD SVG 1.1//EN" "http://www.w3.org/Graphics/SVG/1.1/DTD/svg11.dtd">
<svg version="1.1" id="icons" xmlns="http://www.w3.org/2000/svg" xmlns:xlink="http://www.w3.org/1999/xlink" x="0px" y="0px"
	 viewBox="0 0 30 30" style="enable-background:new 0 0 30 30;" xml:space="preserve">
<style type="text/css">
	.st0{fill:#666766;}
</style>
<path id="icon-calendar" class="st0" d="M3,3v5.5v2.2v3.3v2.2v3.3v2.2V27h5.5h2.2h3.3h2.2h3.3h2.2H27v-5.5v-2.2v-3.3v-2.2v-3.3V8.5
	V3H3z M5.2,10.6h3.3v3.3H5.2V10.6z M19.4,13.9h-3.3v-3.3h3.3V13.9z M19.4,19.4h-3.3v-3.3h3.3V19.4z M10.6,16.1h3.3v3.3h-3.3V16.1z
	 M13.9,13.9h-3.3v-3.3h3.3V13.9z M5.2,16.1h3.3v3.3H5.2V16.1z M8.5,24.8H5.2v-3.3h3.3V24.8z M13.9,24.8h-3.3v-3.3h3.3V24.8z
	 M19.4,24.8h-3.3v-3.3h3.3V24.8z M24.8,24.8h-3.3v-3.3h3.3V24.8z M24.8,19.4h-3.3v-3.3h3.3V19.4z M24.8,13.9h-3.3v-3.3h3.3V13.9z
	 M21.5,8.5h-2.2h-3.3h-2.2h-3.3H8.5H5.2V5.2h19.6v3.3H21.5z"/>
</svg>
