<?xml version="1.0" encoding="utf-8"?>
<!-- Generator: Adobe Illustrator 18.1.1, SVG Export Plug-In . SVG Version: 6.00 Build 0)  -->
<!DOCTYPE svg PUBLIC "-//W3C//DTD SVG 1.1//EN" "http://www.w3.org/Graphics/SVG/1.1/DTD/svg11.dtd">
<svg version="1.1" id="icons" xmlns="http://www.w3.org/2000/svg" xmlns:xlink="http://www.w3.org/1999/xlink" x="0px" y="0px"
	 viewBox="0 0 30 30" style="enable-background:new 0 0 30 30;" xml:space="preserve">
<style type="text/css">
	.st0{fill:#FFFFFF;}
</style>
<path id="icon-telephone" class="st0" d="M6.7,27c-0.2,0-0.4,0-0.7-0.1c-0.3-0.1-0.5-0.4-0.7-0.7L5.3,26l-2.2-5.5
	c-0.2-0.8,0.1-1.5,0.8-1.9l5.9-3c0.2-0.1,0.5-0.2,0.7-0.2c0.2,0,0.6,0.1,1,0.4l0.1,0.1l2.3,2.3c1.7-1.2,3.2-2.7,4.4-4.4l-2.3-2.4
	c-0.4-0.5-0.5-1.2-0.2-1.7l3-5.9c0.3-0.7,1.1-1,1.9-0.8l0.1,0l5.5,2.2c0.4,0.2,0.6,0.5,0.7,0.8C27,6.3,27,6.5,27,6.7
	c0,0.1,0,0.3,0,0.4c-0.7,5.2-2.9,9.6-6.6,13.3c-3.7,3.7-8.2,5.9-13.3,6.5C7,27,6.8,27,6.7,27z M6.7,25.5l0,0.4L6.7,25.5L6.7,25.5z
	 M6.7,24.8l0,0.6l0,0L6.7,24.8C6.7,24.8,6.7,24.8,6.7,24.8L6.7,24.8L6.7,24.8z M5.4,20.4l1.7,4.4c4.5-0.6,8.5-2.6,11.8-5.9
	c3.3-3.3,5.3-7.2,5.9-11.8l-4.4-1.7l-2.5,5l3.2,3.2l-0.5,0.7c-1.6,2.6-3.7,4.7-6.3,6.3l-0.7,0.5l-3.2-3.2L5.4,20.4z"/>
</svg>
