<?xml version="1.0" encoding="utf-8"?>
<!-- Generator: Adobe Illustrator 18.1.1, SVG Export Plug-In . SVG Version: 6.00 Build 0)  -->
<!DOCTYPE svg PUBLIC "-//W3C//DTD SVG 1.1//EN" "http://www.w3.org/Graphics/SVG/1.1/DTD/svg11.dtd">
<svg version="1.1" id="icons" xmlns="http://www.w3.org/2000/svg" xmlns:xlink="http://www.w3.org/1999/xlink" x="0px" y="0px"
	 viewBox="0 0 30 30" style="enable-background:new 0 0 30 30;" xml:space="preserve">
<style type="text/css">
	.st0{fill:#333333;}
</style>
<path id="icon-globe" class="st0" d="M15,3C8.4,3,3,8.4,3,15s5.4,12,12,12s12-5.4,12-12S21.6,3,15,3z M25,14h-3.3
	c-0.1-1.5-0.3-2.9-0.7-4.4c0.6-0.3,1.2-0.6,1.8-0.9C24.1,10.2,24.8,12.1,25,14z M16.1,14v-3.2c1.1-0.1,2.2-0.3,3.2-0.6
	c0.3,1.2,0.5,2.5,0.6,3.7H16.1z M19.8,16c-0.1,1.2-0.3,2.5-0.6,3.7c-1.1-0.3-2.1-0.5-3.2-0.6V16H19.8z M18.7,8.5
	C17.8,8.7,17,8.9,16.1,9V5c0.4,0,0.7,0.1,1.1,0.2C17.8,6.2,18.3,7.3,18.7,8.5z M10.3,14c0.1-1.2,0.2-2.5,0.5-3.7
	c1.1,0.3,2.2,0.5,3.3,0.5V14H10.3z M14.1,16V19c-1.1,0.1-2.2,0.2-3.3,0.5c-0.3-1.2-0.5-2.4-0.5-3.6H14.1z M11.4,8.5
	c0.4-1.2,1-2.3,1.6-3.4l0,0C13.4,5,13.7,5,14.1,5v4C13.2,8.9,12.3,8.8,11.4,8.5z M9.5,7.9C9.2,7.8,8.8,7.6,8.4,7.4
	C9,6.9,9.6,6.4,10.3,6.1C10,6.7,9.8,7.3,9.5,7.9z M9.6,22c0.2,0.6,0.5,1.3,0.8,1.9c-0.7-0.4-1.4-0.8-2-1.4C8.8,22.4,9.2,22.2,9.6,22
	z M11.4,21.4c0.9-0.2,1.8-0.4,2.8-0.4V25c-0.4,0-0.8-0.1-1.2-0.2l0.1-0.1C12.3,23.7,11.8,22.6,11.4,21.4z M16.1,21
	c0.9,0.1,1.8,0.2,2.6,0.5c-0.4,1.1-0.9,2.3-1.6,3.3l0.1,0c-0.4,0.1-0.7,0.1-1.1,0.2V21z M20.5,22.1c0.4,0.2,0.7,0.3,1,0.5
	c-0.5,0.5-1.1,0.9-1.8,1.2C20.1,23.3,20.3,22.7,20.5,22.1z M19.8,6.1c0.6,0.3,1.2,0.7,1.7,1.2c-0.3,0.2-0.7,0.3-1,0.5
	C20.3,7.3,20.1,6.7,19.8,6.1z M7.1,8.8C7.7,9.2,8.3,9.5,9,9.8c-0.4,1.4-0.6,2.8-0.6,4.3H5C5.2,12.1,5.9,10.3,7.1,8.8z M5,16h3.4
	c0.1,1.4,0.3,2.8,0.6,4.2c-0.7,0.3-1.3,0.6-2,1C5.9,19.7,5.2,17.9,5,16z M22.9,21.2c-0.6-0.3-1.2-0.7-1.8-0.9
	c0.4-1.4,0.6-2.9,0.7-4.3H25C24.8,17.9,24.1,19.7,22.9,21.2z"/>
</svg>
