<?xml version="1.0" encoding="utf-8"?>
<!-- Generator: Adobe Illustrator 18.1.1, SVG Export Plug-In . SVG Version: 6.00 Build 0)  -->
<!DOCTYPE svg PUBLIC "-//W3C//DTD SVG 1.1//EN" "http://www.w3.org/Graphics/SVG/1.1/DTD/svg11.dtd">
<svg version="1.1" id="icons" xmlns="http://www.w3.org/2000/svg" xmlns:xlink="http://www.w3.org/1999/xlink" x="0px" y="0px"
	 viewBox="0 0 30 30" style="enable-background:new 0 0 30 30;" xml:space="preserve">
<style type="text/css">
	.st0{fill:#FFFFFF;}
</style>
<path id="icon-power-off" class="st0" d="M14.9,16.3v-2.7H27v2.7H14.9z M26.1,19.7L26.1,19.7l-3,0c-1.7,2.9-4.7,4.7-8.1,4.7
	c-5.1,0-9.3-4.2-9.3-9.3c0-5.1,4.2-9.3,9.3-9.3c3.4,0,6.4,1.8,8.1,4.7h3C24.2,5.9,19.8,3,15,3C8.4,3,3,8.4,3,15c0,6.6,5.4,12,12,12
	C19.8,27,24.2,24.1,26.1,19.7z"/>
</svg>
