<?xml version="1.0" encoding="utf-8"?>
<!-- Generator: Adobe Illustrator 18.1.1, SVG Export Plug-In . SVG Version: 6.00 Build 0)  -->
<!DOCTYPE svg PUBLIC "-//W3C//DTD SVG 1.1//EN" "http://www.w3.org/Graphics/SVG/1.1/DTD/svg11.dtd">
<svg version="1.1" id="Layer_1" xmlns="http://www.w3.org/2000/svg" xmlns:xlink="http://www.w3.org/1999/xlink" x="0px" y="0px"
	 viewBox="0 0 30 30" style="enable-background:new 0 0 30 30;" xml:space="preserve">
<path id="icon-select-multiple" d="M20.5,8.9H3V6.4h17.5V8.9z M20.5,14H3v2.5h17.5V14z M20.5,21.5H3V24h17.5V21.5z M25.4,6
	c-0.9,0-1.6,0.7-1.6,1.6s0.7,1.6,1.6,1.6S27,8.5,27,7.6S26.3,6,25.4,6z M25.4,13.6c-0.9,0-1.6,0.7-1.6,1.6c0,0.9,0.7,1.6,1.6,1.6
	s1.6-0.7,1.6-1.6C27,14.3,26.3,13.6,25.4,13.6z"/>
</svg>
