<?xml version="1.0" encoding="utf-8"?>
<!-- Generator: Adobe Illustrator 18.1.1, SVG Export Plug-In . SVG Version: 6.00 Build 0)  -->
<!DOCTYPE svg PUBLIC "-//W3C//DTD SVG 1.1//EN" "http://www.w3.org/Graphics/SVG/1.1/DTD/svg11.dtd">
<svg version="1.1" id="icons" xmlns="http://www.w3.org/2000/svg" xmlns:xlink="http://www.w3.org/1999/xlink" x="0px" y="0px"
	 viewBox="0 0 30 30" style="enable-background:new 0 0 30 30;" xml:space="preserve">
<style type="text/css">
	.st0{fill:#333333;}
</style>
<path id="icon-streetsign_1_" class="st0" d="M26.6,7.4H20c-0.4-1.2-1.6-2.1-3-2.1h-1V3.3c0-0.6-0.4-1-1-1s-1,0.4-1,1v1.9h-1.1
	c-1.4,0-2.6,0.9-3,2.1H3.6v8.2H14v12.1h2V15.5h10.6V7.4z M24.6,13.5H16h-2H5.6V9.4h6.2v-1c0-0.6,0.5-1.1,1.1-1.1h4.1
	c0.6,0,1.1,0.5,1.1,1.1v1h6.4V13.5z"/>
</svg>
