<?xml version="1.0" encoding="utf-8"?>
<!-- Generator: Adobe Illustrator 18.1.1, SVG Export Plug-In . SVG Version: 6.00 Build 0)  -->
<!DOCTYPE svg PUBLIC "-//W3C//DTD SVG 1.1//EN" "http://www.w3.org/Graphics/SVG/1.1/DTD/svg11.dtd">
<svg version="1.1" id="icons" xmlns="http://www.w3.org/2000/svg" xmlns:xlink="http://www.w3.org/1999/xlink" x="0px" y="0px"
	 viewBox="0 0 30 30" style="enable-background:new 0 0 30 30;" xml:space="preserve">
<style type="text/css">
	.st0{fill:#333333;}
</style>
<path id="icon-list-numbers_1_" class="st0" d="M9.5,6H27v2.5H9.5V6z M9.5,16.1H27v-2.5H9.5V16.1z M9.5,23.6H27v-2.5H9.5V23.6z
	 M4.9,9.2H4.1V7.2C3.9,7.5,3.4,7.6,3,7.6V7C3.6,7,4.1,6.5,4.1,6h0.8V9.2z M6,16.5c-0.2,0.1-0.4,0.1-0.7,0.1c-0.4,0-0.7-0.2-1-0.2
	c-0.3,0-0.4,0.1-0.7,0.2L3.2,16c0.5-0.3,1.8-1,1.8-1.6c0-0.3-0.2-0.5-0.6-0.5c-0.3,0-0.5,0.2-0.5,0.4c0,0.2,0.1,0.3,0.3,0.3
	l-0.5,0.5c-0.3-0.2-0.6-0.5-0.6-0.8c0-0.6,0.6-1.1,1.3-1.1c0.9,0,1.4,0.4,1.4,1.1c0,0.6-0.7,1.2-1.2,1.5c0,0,0.1,0,0.1,0
	C5,15.8,5.2,16,5.4,16c0.2,0,0.4,0,0.6-0.1V16.5z M4.5,24c-0.6,0-1.1-0.2-1.4-0.6l0.6-0.5c0.2,0.3,0.4,0.5,0.8,0.5
	c0.3,0,0.6-0.2,0.6-0.5c0-0.3-0.2-0.4-0.5-0.4c-0.1,0-0.3,0-0.4,0.1L3.8,22l0.9-0.7H3.3v-0.6h2.4v0.6L4.9,22c0.6,0,1.1,0.5,1.1,0.9
	C5.9,23.6,5.3,24,4.5,24z"/>
</svg>
