<?xml version="1.0" encoding="utf-8"?>
<!-- Generator: Adobe Illustrator 18.1.1, SVG Export Plug-In . SVG Version: 6.00 Build 0)  -->
<!DOCTYPE svg PUBLIC "-//W3C//DTD SVG 1.1//EN" "http://www.w3.org/Graphics/SVG/1.1/DTD/svg11.dtd">
<svg version="1.1" id="icons" xmlns="http://www.w3.org/2000/svg" xmlns:xlink="http://www.w3.org/1999/xlink" x="0px" y="0px"
	 viewBox="0 0 30 30" style="enable-background:new 0 0 30 30;" xml:space="preserve">
<style type="text/css">
	.st0{fill:#999999;}
</style>
<path id="icon-stamp" class="st0" d="M25.4,24.3c-1.1,0-2-0.9-2-2s0.9-2,2-2c0,0,0.1,0,0.1,0v-3c0,0-0.1,0-0.1,0c-1.1,0-2-0.9-2-2
	s0.9-2,2-2c0,0,0.1,0,0.1,0v-3c0,0-0.1,0-0.1,0c-1.1,0-2-0.9-2-2s0.9-2,2-2c0,0,0.1,0,0.1,0V3.5v-1h-1h-4c0,1.1-0.9,2-2,2
	s-2-0.9-2-2h-3c0,1.1-0.9,2-2,2s-2-0.9-2-2h-4h-1v1v2.8c1.1,0,1.9,0.9,1.9,2s-0.9,1.9-1.9,2v3c1.1,0,1.9,0.9,1.9,2s-0.9,1.9-1.9,2v3
	c1.1,0,1.9,0.9,1.9,2s-0.9,1.9-1.9,2v2.2v1h1h4c0-1.1,0.9-1.9,2-1.9s1.9,0.9,2,1.9h3c0-1.1,0.9-1.9,2-1.9s1.9,0.9,2,1.9h4h1v-1
	L25.4,24.3C25.5,24.3,25.4,24.3,25.4,24.3z M21.5,23.4h-13l0-16.9h13V23.4z"/>
</svg>
