<?xml version="1.0" encoding="utf-8"?>
<!-- Generator: Adobe Illustrator 19.0.1, SVG Export Plug-In . SVG Version: 6.00 Build 0)  -->
<!DOCTYPE svg PUBLIC "-//W3C//DTD SVG 1.1//EN" "http://www.w3.org/Graphics/SVG/1.1/DTD/svg11.dtd">
<svg version="1.1" id="icons" xmlns="http://www.w3.org/2000/svg" xmlns:xlink="http://www.w3.org/1999/xlink" x="0px" y="0px"
	 viewBox="0 0 30 30" style="enable-background:new 0 0 30 30;" xml:space="preserve">
<style type="text/css">
	.st0{fill:#FFFFFF;}
</style>
<path id="icon-home" d="M-293-173h-9.8v-7.8h-4.5v7.8h-9.8v-16.6l12-7.4l3.6,2.3v-2.1h5.8v5.7l2.5,1.6V-173z M-300.6-175.2h5.4
	v-13.2l-2.5-1.6v-4.7h-1.5v3.8l-5.8-3.6l-9.8,6.1v13.2h5.4v-7.8h8.8V-175.2z"/>
<path id="icon-power-on" d="M-263.7-184.9h-2.7V-197h2.7V-184.9z M-260.3-196.1L-260.3-196.1l0,3c2.9,1.7,4.7,4.7,4.7,8.1
	c0,5.1-4.2,9.3-9.3,9.3c-5.1,0-9.3-4.2-9.3-9.3c0-3.4,1.8-6.4,4.7-8.1v-3c-4.4,1.9-7.3,6.2-7.3,11.1c0,6.6,5.4,12,12,12
	c6.6,0,12-5.4,12-12C-253-189.8-255.9-194.2-260.3-196.1z"/>
<path id="icon-power-off" d="M-225.1-183.7v-2.7h12.1v2.7H-225.1z M-213.9-180.3L-213.9-180.3l-3,0c-1.7,2.9-4.7,4.7-8.1,4.7
	c-5.1,0-9.3-4.2-9.3-9.3c0-5.1,4.2-9.3,9.3-9.3c3.4,0,6.4,1.8,8.1,4.7h3c-1.9-4.4-6.2-7.3-11.1-7.3c-6.6,0-12,5.4-12,12
	c0,6.6,5.4,12,12,12C-220.2-173-215.8-175.9-213.9-180.3z"/>
<path id="icon-search" d="M-181-194.3c-3.6-3.6-9.6-3.6-13.2,0s-3.6,9.6,0,13.2c3.3,3.3,8.5,3.6,12.2,0.9l7.1,7.1l2-2l-7.1-7.1
	C-177.4-185.7-177.7-190.9-181-194.3z M-183-183c-2.6,2.6-6.8,2.6-9.3,0c-2.6-2.6-2.6-6.8,0-9.3c2.6-2.6,6.8-2.6,9.3,0
	C-180.4-189.7-180.4-185.6-183-183z"/>
<path id="icon-filter" d="M-141.7-173.5h-6.6v-9.6l-8.7-13.4h24l-8.7,13.4V-173.5z M-146.1-175.8h2.2v-8l6.7-10.4h-15.7l6.7,10.4
	V-175.8z"/>
<path id="icon-locked" d="M-96.6-188.5v-1.1c0-4.1-3.8-7.4-8.4-7.4s-8.4,3.3-8.4,7.4v1.1h-2.6v15.5h22v-15.5H-96.6z M-110.7-189.6
	c0-2.8,2.6-5.1,5.7-5.1s5.7,2.3,5.7,5.1v1.1h-11.5V-189.6z M-96.6-175.3h-16.7v-10.8h16.7V-175.3z"/>
<path id="icon-unlocked" d="M-56.6-188.5v-1.1c0-4.1-3.8-7.4-8.4-7.4c-2.8,0-5.3,1.2-6.8,3.1l1.8,1.8c1-1.6,2.9-2.6,5-2.6
	c3.2,0,5.7,2.3,5.7,5.1v1.1h-10.2h-1.3h-2.6h-0.3H-76v15.5h22v-15.5H-56.6z M-56.6-175.3h-16.7v-10.8h16.7V-175.3z"/>
<path id="icon-eye-open" d="M-25-177.3c-6.1,0-11.7-6.3-12-6.5l-1-1.2l1-1.2c0.2-0.3,5.8-6.5,12-6.5s11.7,6.3,12,6.5l1,1.2l-1,1.2
	C-13.3-183.5-18.9-177.3-25-177.3z M-35-185c2,2,5.9,5.6,10,5.6s8-3.5,10-5.6c-2-2-5.9-5.6-10-5.6S-33-187-35-185z M-25-188.4
	c-1.9,0-3.5,1.5-3.5,3.4s1.6,3.4,3.5,3.4s3.5-1.5,3.5-3.4S-23.1-188.4-25-188.4z"/>
<path id="icon-eye-shut" d="M15-177.3c-6.1,0-11.7-6.3-12-6.5L2-185l1-1.2c0.2-0.3,5.8-6.5,12-6.5s11.7,6.3,12,6.5l1,1.2l-1,1.2
	C26.7-183.5,21.1-177.3,15-177.3z M5-185c2,2,5.9,5.6,10,5.6s8-3.5,10-5.6c-2-2-5.9-5.6-10-5.6S7-187,5-185z M18.8-187l-1.8-1.8
	l-2,2l-2-2l-1.8,1.8l2,2l-2,2l1.8,1.8l2-2l2,2l1.8-1.8l-2-2L18.8-187z"/>
<path id="icon-calendar" d="M-317-157v5.5v2.2v3.3v2.2v3.3v2.2v5.5h5.5h2.2h3.3h2.2h3.3h2.2h5.5v-5.5v-2.2v-3.3v-2.2v-3.3v-2.2v-5.5
	H-317z M-314.8-149.4h3.3v3.3h-3.3V-149.4z M-300.6-146.1h-3.3v-3.3h3.3V-146.1z M-300.6-140.6h-3.3v-3.3h3.3V-140.6z M-309.4-143.9
	h3.3v3.3h-3.3V-143.9z M-306.1-146.1h-3.3v-3.3h3.3V-146.1z M-314.8-143.9h3.3v3.3h-3.3V-143.9z M-311.5-135.2h-3.3v-3.3h3.3V-135.2
	z M-306.1-135.2h-3.3v-3.3h3.3V-135.2z M-300.6-135.2h-3.3v-3.3h3.3V-135.2z M-295.2-135.2h-3.3v-3.3h3.3V-135.2z M-295.2-140.6
	h-3.3v-3.3h3.3V-140.6z M-295.2-146.1h-3.3v-3.3h3.3V-146.1z M-298.5-151.5h-2.2h-3.3h-2.2h-3.3h-2.2h-3.3v-3.3h19.6v3.3H-298.5z"/>
<path id="icon-calendar-day" d="M-277-157v24h24v-24H-277z M-255.2-154.8v3.4h-19.6v-3.4H-255.2z M-274.8-135.2v-14.1h19.6v14.1
	H-274.8z M-267-138.1h-1.7v-5.2c-0.5,0.8-1.4,1.2-2.4,1.2v-1.8c1.3,0,2.3-1.1,2.4-2.4h1.7V-138.1z M-262.3-138c-1.3,0-2.2-0.6-3-1.5
	l1.2-1.2c0.4,0.7,0.9,1.2,1.8,1.2c0.7,0,1.3-0.5,1.3-1.2c0-0.7-0.4-1.1-1.1-1.1c-0.3,0-0.6,0.1-0.8,0.4l-1-1.4l1.9-1.7h-3v-1.6h5.1
	v1.6l-1.7,1.5c1.3,0,2.3,1.2,2.3,2.4C-259.4-139.1-260.7-138-262.3-138z"/>
<path id="icon-calendar-week" d="M-237-157v24h24v-24H-237z M-215.2-154.8v3.4h-19.6v-3.4H-215.2z M-234.8-135.2v-14.1h19.6v14.1
	H-234.8z M-225.4-141.1c0,1.8-1.2,3-2.9,3c-1.2,0-2.2-0.5-3-1.6l-0.2-0.3l1.3-1.3l0.3,0.4c0.5,0.7,1,1,1.7,1c0.6,0,1.1-0.5,1.1-1.3
	c0-0.8-0.6-1.1-1.1-1.1c-0.6,0-1,0.2-1.3,0.7l-0.2,0.3l-1.4-0.8l0.7-4.8h4.6v1.8h-3.2l-0.2,1.2c0.3-0.1,0.6-0.2,1-0.2
	C-226.6-143.9-225.4-142.7-225.4-141.1z M-218.7-140.5v2l-0.2,0.1c-0.4,0.2-0.9,0.3-1.3,0.3c-0.4,0-0.8-0.1-1.1-0.3
	c-0.3-0.1-0.6-0.2-0.8-0.2c-0.4,0-0.7,0.1-1.2,0.4l-0.4,0.2l-0.8-1.6l0.3-0.2c0.8-0.5,3.6-2.4,3.6-4.1c0-0.5-0.2-1.3-1.2-1.3
	c-0.6,0-1.1,0.5-1.1,1.1c0,0.4,0.1,0.7,0.4,0.8l0.3,0.2l-1.1,1.4l-0.3-0.2c-0.7-0.5-1.1-1.3-1.1-2.2c0-1.6,1.3-2.9,2.8-2.9
	c1.8,0,2.9,1.2,2.9,3.1c0,1.6-1.2,3-2.1,3.8c0.1,0,0.2,0.1,0.2,0.1c0.6,0.2,1,0.2,1.5-0.1L-218.7-140.5z"/>
<path id="icon-calendar-month_1_" d="M-197-157v24h24v-24H-197z M-175.2-154.8v3.4h-19.6v-3.4H-175.2z M-194.8-135.2v-14.1h19.6
	v14.1H-194.8z M-188.9-145c0-0.6-0.5-0.8-1-0.8c-0.6,0-1.2,0.3-1.2,1c0,0.5,0.4,0.9,1.1,1.4c0.9,0.6,1.9,1.4,1.9,2.7
	c0,1.2-0.9,2.1-2.2,2.1c-0.5,0-0.8-0.1-1.2-0.3l-0.2-0.1v-2l0.6,0.6c0.3,0.2,0.5,0.3,0.8,0.3c0.3,0,0.7-0.2,0.7-0.6
	c0-0.6-0.6-1-1.2-1.5c-0.8-0.6-1.8-1.3-1.8-2.6c0-1.5,1.2-2.5,2.8-2.5c1.3,0,2.6,0.8,2.6,2.4c0,0.7-0.4,1.4-1.2,1.8l-0.2,0.1
	l-1.1-1.1l0.4-0.2C-188.9-144.6-188.9-144.8-188.9-145z M-183.1-142.3c-0.5-0.7-1.2-1-2-1c-1.3,0-2.4,1.1-2.4,2.4
	c0,1.4,1.1,2.4,2.5,2.4c0.4,0,0.9-0.1,1.4-0.3l0.2-0.1v-1.8l-0.6,0.5c-0.3,0.2-0.8,0.3-1.1,0.3l2.1-2.1L-183.1-142.3z M-185.1-141.9
	C-185.1-141.9-185-141.9-185.1-141.9l-0.9,0.9c0,0,0,0,0,0C-186-141.4-185.6-141.9-185.1-141.9z M-179.8-143.4
	c-0.4,0-0.7,0.1-1.1,0.3v-0.2h-1.5v7.1h1.5v-2.6c0.3,0.2,0.7,0.3,1.1,0.3c1.3,0,2.3-1.1,2.3-2.4
	C-177.5-142.3-178.5-143.4-179.8-143.4z M-180.8-140.6C-180.9-140.6-180.9-140.6-180.8-140.6C-180.9-140.6-180.9-140.6-180.8-140.6
	l0-0.6c0,0,0-0.1,0.1-0.2c0.2-0.3,0.5-0.6,0.9-0.6c0.5,0,0.9,0.4,0.9,1c0,0.5-0.4,1-0.9,1C-180.3-140-180.7-140.2-180.8-140.6z"/>
<path id="icon-calendar-year" d="M-157-157v24h24v-24H-157z M-135.2-154.8v3.4h-19.6v-3.4H-135.2z M-154.8-135.2v-14.1h19.6v14.1
	H-154.8z M-149.6-139.2c-0.3,0.2-0.6,0.3-0.9,0.3c-0.5,0-0.9-0.3-1.4-0.3c-0.4,0-0.6,0.1-0.9,0.4l-0.5-1.2c0.7-0.5,2.5-2,2.5-3.1
	c0-0.6-0.3-1-0.8-1c-0.4,0-0.7,0.4-0.7,0.9c0,0.3,0.1,0.5,0.3,0.7l-0.7,0.9c-0.5-0.4-0.8-0.9-0.8-1.6c0-1.2,0.9-2.1,1.8-2.1
	c1.2,0,1.9,0.8,1.9,2.2c0,1.1-0.9,2.2-1.7,2.8c0,0,0.1,0,0.1,0c0.3,0,0.6,0.2,0.9,0.2c0.3,0,0.5-0.1,0.8-0.3V-139.2z M-146.7-138.9
	c-1.4,0-2-1.8-2-3.2c0-1.4,0.6-3.2,2-3.2s2,1.8,2,3.2C-144.7-140.7-145.3-138.9-146.7-138.9z M-146.7-144.1c-0.7,0-0.9,1.3-0.9,2
	c0,0.6,0.2,2,0.9,2c0.7,0,0.9-1.3,0.9-2C-145.8-142.8-146-144.1-146.7-144.1z M-141.4-139h-1.1v-4c-0.3,0.6-0.9,0.9-1.5,0.9v-1.3
	c0.8,0,1.5-0.8,1.5-1.8h1.1V-139z M-138.3-139c-0.8,0-1.4-0.4-1.9-1.2l0.7-0.9c0.3,0.5,0.6,0.9,1.2,0.9c0.4,0,0.7-0.4,0.7-0.9
	c0-0.5-0.4-0.8-0.7-0.8c-0.3,0-0.7,0.2-0.8,0.5l-0.9-0.6l0.4-3.3h2.9v1.2h-2.1l-0.1,1.1c0.2-0.2,0.5-0.2,0.8-0.2c1,0,1.8,0.8,1.8,2
	C-136.5-139.8-137.3-139-138.3-139z"/>
<path id="icon-clock" d="M-104.9-132.5c-6.9,0-12.5-5.6-12.5-12.5s5.6-12.5,12.5-12.5s12.5,5.6,12.5,12.5S-98-132.5-104.9-132.5z
	 M-104.9-155.2c-5.6,0-10.2,4.6-10.2,10.2s4.6,10.2,10.2,10.2s10.2-4.6,10.2-10.2S-99.2-155.2-104.9-155.2z M-97.3-139.7l-6.5-6.5
	v-5.6h-2.3v6.5l7.2,7.2L-97.3-139.7z"/>
<path id="icon-telephone" d="M-73.3,27c-0.2,0-0.4,0-0.7-0.1c-0.3-0.1-0.5-0.4-0.7-0.7l-0.1-0.1l-2.2-5.5c-0.2-0.8,0.1-1.5,0.8-1.9
	l5.9-3c0.2-0.1,0.5-0.2,0.7-0.2c0.2,0,0.6,0.1,1,0.4l0.1,0.1l2.3,2.3c1.7-1.2,3.2-2.7,4.4-4.4l-2.3-2.4c-0.4-0.5-0.5-1.2-0.2-1.7
	l3-5.9c0.3-0.7,1.1-1,1.9-0.8l0.1,0l5.5,2.2c0.4,0.2,0.6,0.5,0.7,0.8C-53,6.3-53,6.5-53,6.7c0,0.1,0,0.3,0,0.4
	c-0.7,5.2-2.9,9.6-6.6,13.3c-3.7,3.7-8.2,5.9-13.3,6.5C-73,27-73.2,27-73.3,27z M-73.3,25.5l0,0.4L-73.3,25.5L-73.3,25.5z
	 M-73.3,24.8l0,0.6l0,0L-73.3,24.8C-73.3,24.8-73.3,24.8-73.3,24.8L-73.3,24.8L-73.3,24.8z M-74.6,20.4l1.7,4.4
	c4.5-0.6,8.5-2.6,11.8-5.9c3.3-3.3,5.3-7.2,5.9-11.8l-4.4-1.7l-2.5,5l3.2,3.2l-0.5,0.7c-1.6,2.6-3.7,4.7-6.3,6.3l-0.7,0.5l-3.2-3.2
	L-74.6,20.4z"/>
<path id="icon-settings" d="M-13,8.9v1h-13.4c-0.2,0.6-0.8,1.1-1.5,1.1s-1.3-0.5-1.5-1.1H-37v-1h7.6c0.2-0.6,0.8-1.1,1.5-1.1
	s1.3,0.5,1.5,1.1H-13z M-18.4,13.3c-0.7,0-1.3,0.5-1.5,1.1H-37v1h17.1c0.2,0.6,0.8,1.1,1.5,1.1s1.3-0.5,1.5-1.1h3.9v-1h-3.9
	C-17.1,13.7-17.7,13.3-18.4,13.3z M-25.4,19c-0.7,0-1.3,0.5-1.5,1.1H-37v1h10.1c0.2,0.6,0.8,1.1,1.5,1.1s1.3-0.5,1.5-1.1H-13v-1
	h-10.9C-24.1,19.5-24.7,19-25.4,19z"/>
<path id="icon-at" d="M-132.9,15c0-6.6-5.4-12-12-12s-12,5.4-12,12s5.4,12,12,12c2.4,0,4.8-0.7,6.8-2.1l-1.2-1.8
	c-1.6,1.1-3.6,1.7-5.5,1.7c-5.4,0-9.8-4.4-9.8-9.8s4.4-9.8,9.8-9.8s9.8,4.4,9.8,9.8c0,1-0.1,1.9-0.4,2.8c-1.3-0.5-2.2-1.6-2.2-2.8
	c0-3.9-3.2-7.1-7.1-7.1c-3.9,0-7.1,3.2-7.1,7.1s3.2,7.1,7.1,7.1c2.7,0,5.1-1.5,6.3-3.8c1.1,1.2,2.7,1.9,4.5,1.9c0,0,0.2-0.6,0.3-0.8
	C-133.2,18.1-132.9,16.6-132.9,15z M-144.8,19.9c-2.7,0-4.9-2.2-4.9-4.9s2.2-4.9,4.9-4.9c2.7,0,4.9,2.2,4.9,4.9
	S-142.1,19.9-144.8,19.9z"/>
<path id="icon-globe" d="M-105,3c-6.6,0-12,5.4-12,12s5.4,12,12,12s12-5.4,12-12S-98.4,3-105,3z M-95,14h-3.3
	c-0.1-1.5-0.3-2.9-0.7-4.4c0.6-0.3,1.2-0.6,1.8-0.9C-95.9,10.2-95.2,12.1-95,14z M-103.9,14v-3.2c1.1-0.1,2.2-0.3,3.2-0.6
	c0.3,1.2,0.5,2.5,0.6,3.7H-103.9z M-100.2,16c-0.1,1.2-0.3,2.5-0.6,3.7c-1.1-0.3-2.1-0.5-3.2-0.6V16H-100.2z M-101.3,8.5
	c-0.9,0.2-1.8,0.4-2.6,0.5V5c0.4,0,0.7,0.1,1.1,0.2C-102.2,6.2-101.7,7.3-101.3,8.5z M-109.7,14c0.1-1.2,0.2-2.5,0.5-3.7
	c1.1,0.3,2.2,0.5,3.3,0.5V14H-109.7z M-105.9,16V19c-1.1,0.1-2.2,0.2-3.3,0.5c-0.3-1.2-0.5-2.4-0.5-3.6H-105.9z M-108.6,8.5
	c0.4-1.2,1-2.3,1.6-3.4l0,0c0.4-0.1,0.8-0.1,1.2-0.2v4C-106.8,8.9-107.7,8.8-108.6,8.5z M-110.5,7.9c-0.4-0.2-0.8-0.3-1.1-0.5
	c0.6-0.5,1.2-0.9,1.9-1.3C-110,6.7-110.2,7.3-110.5,7.9z M-110.4,22c0.2,0.6,0.5,1.3,0.8,1.9c-0.7-0.4-1.4-0.8-2-1.4
	C-111.2,22.4-110.8,22.2-110.4,22z M-108.6,21.4c0.9-0.2,1.8-0.4,2.8-0.4V25c-0.4,0-0.8-0.1-1.2-0.2l0.1-0.1
	C-107.7,23.7-108.2,22.6-108.6,21.4z M-103.9,21c0.9,0.1,1.8,0.2,2.6,0.5c-0.4,1.1-0.9,2.3-1.6,3.3l0.1,0c-0.4,0.1-0.7,0.1-1.1,0.2
	V21z M-99.5,22.1c0.4,0.2,0.7,0.3,1,0.5c-0.5,0.5-1.1,0.9-1.8,1.2C-99.9,23.3-99.7,22.7-99.5,22.1z M-100.2,6.1
	c0.6,0.3,1.2,0.7,1.7,1.2c-0.3,0.2-0.7,0.3-1,0.5C-99.7,7.3-99.9,6.7-100.2,6.1z M-112.9,8.8c0.6,0.4,1.3,0.7,1.9,0.9
	c-0.4,1.4-0.6,2.8-0.6,4.3h-3.4C-114.8,12.1-114.1,10.3-112.9,8.8z M-115,16h3.4c0.1,1.4,0.3,2.8,0.6,4.2c-0.7,0.3-1.3,0.6-2,1
	C-114.1,19.7-114.8,17.9-115,16z M-97.1,21.2c-0.6-0.3-1.2-0.7-1.8-0.9c0.4-1.4,0.6-2.9,0.7-4.3h3.3C-95.2,17.9-95.9,19.7-97.1,21.2
	z"/>
<path id="icon-numbers" d="M-312.1,62.3h-2.3v-8.1c-0.7,1.2-1.9,1.9-3.1,1.9v-2.7c1.7,0,3.1-1.6,3.1-3.6h2.3V62.3z M-301.9,62
	c-0.5,0.4-1.2,0.5-1.8,0.5c-1,0-1.9-0.7-2.9-0.7c-0.9,0-1.2,0.2-1.9,0.7l-1.1-2.4c1.5-1.1,5.1-4,5.1-6.3c0-1.2-0.5-2-1.6-2
	c-0.9,0-1.5,0.8-1.5,1.8c0,0.7,0.2,1,0.7,1.3l-1.4,1.9c-1-0.8-1.6-1.8-1.6-3.2c0-2.4,1.8-4.2,3.8-4.2c2.4,0,3.9,1.6,3.9,4.4
	c0,2.3-1.9,4.5-3.4,5.7c0.1,0,0.2,0,0.2,0c0.7,0,1.2,0.5,1.9,0.5c0.7,0,1.1-0.1,1.6-0.6V62z M-296.4,62.4c-1.6,0-3-0.9-3.9-2.4
	l1.6-1.9c0.6,1,1.2,1.8,2.3,1.8c0.9,0,1.6-0.8,1.6-1.8c0-1-0.5-1.7-1.4-1.7c-0.4,0-0.8,0.2-1,0.6l-1.4-2.1l2.5-2.6h-4v-2.5h6.7v2.5
	l-2.2,2.3c1.7,0,3,1.8,3,3.7C-292.5,60.8-294.2,62.4-296.4,62.4z"/>
<path id="icon-letters" d="M-268.4,61.1c-0.4,0.3-1,0.5-1.6,0.5c-0.8,0-1.5-0.5-1.8-1.2c-0.5,0.8-1.4,1.2-2.3,1.2
	c-2,0-3.4-1.7-3.4-3.6c0-1.9,1.3-3.6,3.4-3.6c0.9,0,1.6,0.3,2.1,0.9v-0.8h2.1V59c0,0.4,0.3,0.7,0.7,0.7c0.3,0,0.5-0.1,0.8-0.3V61.1z
	 M-272,57.2c-0.3-0.7-0.9-1.2-1.7-1.2c-1,0-1.8,0.9-1.8,1.9c0,1,0.8,1.9,1.8,1.9c0.7,0,1.4-0.5,1.7-1.2V57.2z M-263.7,61.6
	c-2,0-3.6-1.6-3.6-3.6v-9.5h2.1v9.4c0,0.9,0.8,1.7,1.7,1.7c1,0,1.7-0.8,1.7-1.8c0-0.2-0.1-0.5-0.2-0.8c-0.2,0.3-0.7,0.5-1.1,0.5
	c-0.8,0-1.5-0.8-1.5-1.6c0-0.9,0.9-1.7,1.8-1.7c1.9,0,2.9,1.8,2.9,3.5C-260,59.8-261.7,61.6-263.7,61.6z M-253.9,57.7
	c-0.6,0-1.3-0.6-1.3-1.2c0-0.1,0-0.2,0-0.3c-1,0-1.5,0.7-1.5,1.7c0,1.1,0.9,1.8,2,1.8c0.7,0,1.5-0.2,2-0.6v2.1
	c-0.6,0.3-1.3,0.4-2,0.4c-2.2,0-3.9-1.4-3.9-3.7c0-1.9,1.5-3.6,3.4-3.6c1.3,0,2.6,0.5,2.6,2C-252.5,57.1-253.1,57.7-253.9,57.7z"/>
<path id="icon-pen" d="M-317-93.2l0.9-7.2l15.3-15.1c0.9-0.8,2-1.3,3.2-1.3c1.2,0,2.4,0.5,3.2,1.3c0.9,0.9,1.3,2,1.3,3.2
	c0,1.2-0.5,2.3-1.3,3.2l-15.3,15L-317-93.2z M-314.1-99.4l-0.5,3.8l3.9-0.5l14.8-14.5c0.5-0.5,0.7-1,0.7-1.7c0-0.6-0.3-1.2-0.7-1.7
	c-0.9-0.9-2.5-0.9-3.5,0L-314.1-99.4z"/>
<path id="icon-copy_1_" d="M-253-93h-17.2v-5.2h-6.8V-117h17.2v5.2h6.8V-93z M-268-95.2h12.9v-14.4l-12.8,0L-268-95.2z
	 M-274.8-100.4h4.6v-11.4h8.3v-3h-12.9V-100.4z"/>
<path id="icon-copy-transparent" d="M-213-93h-17.2v-5.2h-6.8V-117h17.2v5.2h6.8V-93z M-228-95.2h12.9v-14.4h-4.6v11.4h-8.3V-95.2z
	 M-228-100.4h6.1v-9.2h-6.1V-100.4z M-234.8-100.4h4.6v-11.4h8.3v-3h-12.9V-100.4z"/>
<path id="icon-document" d="M-187.8-117.1l-7.3,7.5l0,0v16.8h20.3v-24.3H-187.8z M-191.9-110.4l3.3-3.4v3.4H-191.9z M-193-95v-13.6
	l6.2,0l0-6.3h9.8V-95H-193z"/>
<path id="icon-streetsign_1_" d="M-253.4,7.4h-6.5c-0.4-1.2-1.6-2.1-3-2.1h-1V3.3c0-0.6-0.4-1-1-1s-1,0.4-1,1v1.9h-1.1
	c-1.4,0-2.6,0.9-3,2.1h-6.4v8.2h10.4v12.1h2V15.5h10.6V7.4z M-255.4,13.5h-8.6h-2h-8.4V9.4h6.2v-1c0-0.6,0.5-1.1,1.1-1.1h4.1
	c0.6,0,1.1,0.5,1.1,1.1v1h6.4V13.5z"/>
<path id="icon-stamp" d="M-214.6,24.3c-1.1,0-2-0.9-2-2s0.9-2,2-2c0,0,0.1,0,0.1,0v-3c0,0-0.1,0-0.1,0c-1.1,0-2-0.9-2-2s0.9-2,2-2
	c0,0,0.1,0,0.1,0v-3c0,0-0.1,0-0.1,0c-1.1,0-2-0.9-2-2s0.9-2,2-2c0,0,0.1,0,0.1,0V3.5v-1h-1h-4c0,1.1-0.9,2-2,2s-2-0.9-2-2h-3
	c0,1.1-0.9,2-2,2s-2-0.9-2-2h-4h-1v1v2.8c1.1,0,1.9,0.9,1.9,2s-0.9,1.9-1.9,2v3c1.1,0,1.9,0.9,1.9,2s-0.9,1.9-1.9,2v3
	c1.1,0,1.9,0.9,1.9,2s-0.9,1.9-1.9,2v2.2v1h1h4c0-1.1,0.9-1.9,2-1.9s1.9,0.9,2,1.9h3c0-1.1,0.9-1.9,2-1.9s1.9,0.9,2,1.9h4h1v-1
	L-214.6,24.3C-214.5,24.3-214.6,24.3-214.6,24.3z M-218.5,23.4h-13l0-16.9h13V23.4z"/>
<path id="icon-pin" d="M-305,27.5l-0.9-1.7c-0.7-1.2-6.4-12.3-6.4-15.9c0-4,3.3-7.3,7.3-7.3s7.3,3.3,7.3,7.3
	c0,3.6-5.8,14.7-6.4,15.9L-305,27.5z M-305,4.6c-2.9,0-5.3,2.4-5.3,5.3c0,2.3,3.2,9.2,5.3,13.2c2.4-4.7,5.3-11.1,5.3-13.2
	C-299.7,6.9-302.1,4.6-305,4.6z"/>
<path id="icon-flag" d="M-196.5,6v18h23V6H-196.5z M-175.5,10h-11V8h11V10z M-175.5,16v2h-19v-2H-175.5z M-186.5,14v-2h11v2H-186.5z
	 M-188.5,8v6h-6V8H-188.5z M-194.5,22v-2h19v2H-194.5z M-192.7,12.9l0.3-1.4l-1.1-1l1.5-0.2l0.6-1.3l0.6,1.3l1.5,0.2l-1.1,1l0.3,1.4
	l-1.3-0.7L-192.7,12.9z"/>
<path id="icon-menu-loose" d="M-294-73.6h-22V-76h22V-73.6z M-294-66.2h-22v2.4h22V-66.2z M-294-56.4h-22v2.4h22V-56.4z"/>
<path id="icon-menu" d="M-253-71.3h-24v-2.5h24V-71.3z M-253-66.2h-24v2.5h24V-66.2z M-253-58.7h-24v2.5h24V-58.7z"/>
<path id="icon-paragraph-left" d="M-214.7-72.2H-237v-2.4h22.3V-72.2z M-213-69h-24v2.4h24V-69z M-216.4-63.4H-237v2.4h20.6V-63.4z
	 M-221.1-57.8H-237v2.4h15.9V-57.8z"/>
<path id="icon-paragraph-left-justified" d="M-173-72.2h-24v-2.4h24V-72.2z M-173-69h-24v2.4h24V-69z M-173-63.4h-24v2.4h24V-63.4z
	 M-181.1-57.8H-197v2.4h15.9V-57.8z"/>
<path id="icon-paragraph-right" d="M-155.3-74.6h22.3v2.4h-22.3V-74.6z M-157-66.6h24V-69h-24V-66.6z M-153.6-61h20.6v-2.4h-20.6
	V-61z M-148.9-55.4h15.9v-2.4h-15.9V-55.4z"/>
<path id="icon-paragraph-right-justified" d="M-117-74.6h24v2.4h-24V-74.6z M-117-66.6h24V-69h-24V-66.6z M-117-61h24v-2.4h-24V-61z
	 M-108.9-55.4H-93v-2.4h-15.9V-55.4z"/>
<path id="icon-list-numbers_1_" d="M-30.5-74H-13v2.5h-17.5V-74z M-30.5-63.9H-13v-2.5h-17.5V-63.9z M-30.5-56.4H-13v-2.5h-17.5
	V-56.4z M-35.1-70.8h-0.8v-2.1c-0.2,0.3-0.7,0.5-1.1,0.5V-73c0.6,0,1.1-0.4,1.1-0.9h0.8V-70.8z M-34-63.5c-0.2,0.1-0.4,0.1-0.7,0.1
	c-0.4,0-0.7-0.2-1-0.2c-0.3,0-0.4,0.1-0.7,0.2l-0.4-0.6c0.5-0.3,1.8-1,1.8-1.6c0-0.3-0.2-0.5-0.6-0.5c-0.3,0-0.5,0.2-0.5,0.4
	c0,0.2,0.1,0.3,0.3,0.3l-0.5,0.5c-0.3-0.2-0.6-0.5-0.6-0.8c0-0.6,0.6-1.1,1.3-1.1c0.9,0,1.4,0.4,1.4,1.1c0,0.6-0.7,1.2-1.2,1.5
	c0,0,0.1,0,0.1,0c0.2,0,0.4,0.1,0.7,0.1c0.2,0,0.4,0,0.6-0.1V-63.5z M-35.5-56c-0.6,0-1.1-0.2-1.4-0.6l0.6-0.5
	c0.2,0.3,0.4,0.5,0.8,0.5c0.3,0,0.6-0.2,0.6-0.5c0-0.3-0.2-0.4-0.5-0.4c-0.1,0-0.3,0-0.4,0.1l-0.5-0.5l0.9-0.7h-1.4v-0.6h2.4v0.6
	l-0.8,0.6c0.6,0,1.1,0.5,1.1,0.9C-34.1-56.4-34.7-56-35.5-56z"/>
<path id="icon-list-bullets" d="M-71-73.8h17.5v2.5H-71V-73.8z M-71-63.7h17.5v-2.5H-71V-63.7z M-71-56.2h17.5v-2.5H-71V-56.2z
	 M-77.5-72.6c0,0.9,0.7,1.6,1.6,1.6c0.9,0,1.6-0.7,1.6-1.6c0-0.9-0.7-1.6-1.6-1.6C-76.8-74.2-77.5-73.5-77.5-72.6z M-77.5-65
	c0,0.9,0.7,1.6,1.6,1.6c0.9,0,1.6-0.7,1.6-1.6c0-0.9-0.7-1.6-1.6-1.6C-76.8-66.6-77.5-65.9-77.5-65z M-77.5-57.4
	c0,0.9,0.7,1.6,1.6,1.6c0.9,0,1.6-0.7,1.6-1.6S-75-59-75.9-59C-76.8-59-77.5-58.3-77.5-57.4z"/>
<path id="icon-select-multiple" d="M20.5-71.1H3v-2.5h17.5V-71.1z M20.5-66H3v2.5h17.5V-66z M20.5-58.5H3v2.5h17.5V-58.5z M25.4-74
	c-0.9,0-1.6,0.7-1.6,1.6c0,0.9,0.7,1.6,1.6,1.6s1.6-0.7,1.6-1.6C27-73.3,26.3-74,25.4-74z M25.4-66.4c-0.9,0-1.6,0.7-1.6,1.6
	c0,0.9,0.7,1.6,1.6,1.6s1.6-0.7,1.6-1.6C27-65.7,26.3-66.4,25.4-66.4z"/>
<path id="icon-select-single" d="M60.5-71.1H43v-2.5h17.5V-71.1z M60.5-66H43v2.5h17.5V-66z M60.5-58.5H43v2.5h17.5V-58.5z M65.4-74
	c-0.9,0-1.6,0.7-1.6,1.6c0,0.9,0.7,1.6,1.6,1.6c0.9,0,1.6-0.7,1.6-1.6C67-73.3,66.3-74,65.4-74z"/>
<polygon id="icon-math-plus" points="-133,-26.2 -143.8,-26.2 -143.8,-37 -146.2,-37 -146.2,-26.2 -157,-26.2 -157,-23.8 
	-146.2,-23.8 -146.2,-13 -143.8,-13 -143.8,-23.8 -133,-23.8 "/>
<rect id="icon-math-minus" x="-117" y="-26.1" width="24" height="2.4"/>
<polygon id="icon-math-multiply" points="-54.5,-33.5 -56.4,-35.4 -65,-26.8 -73.6,-35.4 -75.5,-33.5 -66.9,-24.9 -75.5,-16.3 
	-73.6,-14.4 -65,-23 -56.4,-14.4 -54.5,-16.3 -63.1,-24.9 "/>
<path id="icon-math-divide" d="M-13-23.6h-24V-26h24V-23.6z M-25-21.6c0.9,0,1.6,0.7,1.6,1.6s-0.7,1.6-1.6,1.6s-1.6-0.7-1.6-1.6
	S-25.9-21.6-25-21.6z M-25-31.4c0.9,0,1.6,0.7,1.6,1.6s-0.7,1.6-1.6,1.6s-1.6-0.7-1.6-1.6S-25.9-31.4-25-31.4z"/>
<path id="icon-math-equals" d="M27-27.2H3v-2.4h24V-27.2z M27-22.6H3v2.4h24V-22.6z"/>
<polygon id="icon-checkmark" points="65.2,-33.8 52.9,-18.5 44.4,-25.3 42.9,-23.4 51.4,-16.6 51.4,-16.6 53.3,-15.1 67.1,-32.3 "/>
<polygon id="icon-arrow-up" points="-305,-30 -317,-18.3 -315.5,-16 -305,-26.3 -294.5,-16 -293,-18.3 "/>
<polygon id="icon-arrow-right" points="-258.6,-24.2 -269.3,-35.2 -271.4,-33.8 -262,-24.2 -271.4,-14.6 -269.3,-13.2 "/>
<polygon id="icon-arrow-down" points="-225,-17.2 -213,-28.9 -214.5,-31.2 -225,-20.9 -235.5,-31.2 -237,-28.9 "/>
<polygon id="icon-arrow-left" points="-191.4,-24.2 -180.7,-13.2 -178.6,-14.6 -188,-24.2 -178.6,-33.8 -180.7,-35.2 "/>
<circle class="st0" cx="15" cy="7.5" r="1.6"/>
<circle class="st0" cx="15" cy="15.1" r="1.6"/>
<circle class="st0" cx="15" cy="22.6" r="1.6"/>
</svg>
