<?xml version="1.0" encoding="utf-8"?>
<!-- Generator: Adobe Illustrator 18.1.1, SVG Export Plug-In . SVG Version: 6.00 Build 0)  -->
<!DOCTYPE svg PUBLIC "-//W3C//DTD SVG 1.1//EN" "http://www.w3.org/Graphics/SVG/1.1/DTD/svg11.dtd">
<svg version="1.1" id="icons" xmlns="http://www.w3.org/2000/svg" xmlns:xlink="http://www.w3.org/1999/xlink" x="0px" y="0px"
	 viewBox="0 0 30 30" style="enable-background:new 0 0 30 30;" xml:space="preserve">
<style type="text/css">
	.st0{fill:#FFFFFF;}
</style>
<path id="icon-power-on" class="st0" d="M16.3,15.1h-2.7V3h2.7V15.1z M19.7,3.9L19.7,3.9l0,3c2.9,1.7,4.7,4.7,4.7,8.1
	c0,5.1-4.2,9.3-9.3,9.3c-5.1,0-9.3-4.2-9.3-9.3c0-3.4,1.8-6.4,4.7-8.1v-3C5.9,5.8,3,10.2,3,15c0,6.6,5.4,12,12,12
	c6.6,0,12-5.4,12-12C27,10.2,24.1,5.8,19.7,3.9z"/>
</svg>
