<?xml version="1.0" encoding="utf-8"?>
<!-- Generator: Adobe Illustrator 18.1.1, SVG Export Plug-In . SVG Version: 6.00 Build 0)  -->
<!DOCTYPE svg PUBLIC "-//W3C//DTD SVG 1.1//EN" "http://www.w3.org/Graphics/SVG/1.1/DTD/svg11.dtd">
<svg version="1.1" id="icons" xmlns="http://www.w3.org/2000/svg" xmlns:xlink="http://www.w3.org/1999/xlink" x="0px" y="0px"
	 viewBox="0 0 30 30" style="enable-background:new 0 0 30 30;" xml:space="preserve">
<style type="text/css">
	.st0{fill:#FFFFFF;}
</style>
<path id="icon-letters" class="st0" d="M11.6,21.1c-0.4,0.3-1,0.5-1.6,0.5c-0.8,0-1.5-0.5-1.8-1.2c-0.5,0.8-1.4,1.2-2.3,1.2
	c-2,0-3.4-1.7-3.4-3.6c0-1.9,1.3-3.6,3.4-3.6c0.9,0,1.6,0.3,2.1,0.9v-0.8h2.1V19c0,0.4,0.3,0.7,0.7,0.7c0.3,0,0.5-0.1,0.8-0.3V21.1z
	 M8,17.2C7.7,16.5,7.1,16,6.3,16c-1,0-1.8,0.9-1.8,1.9s0.8,1.9,1.8,1.9c0.7,0,1.4-0.5,1.7-1.2V17.2z M16.3,21.6
	c-2,0-3.6-1.6-3.6-3.6V8.4h2.1v9.4c0,0.9,0.8,1.7,1.7,1.7c1,0,1.7-0.8,1.7-1.8c0-0.2-0.1-0.5-0.2-0.8c-0.2,0.3-0.7,0.5-1.1,0.5
	c-0.8,0-1.5-0.8-1.5-1.6c0-0.9,0.9-1.7,1.8-1.7c1.9,0,2.9,1.8,2.9,3.5C20,19.8,18.3,21.6,16.3,21.6z M26.1,17.7
	c-0.6,0-1.3-0.6-1.3-1.2c0-0.1,0-0.2,0-0.3c-1,0-1.5,0.7-1.5,1.7c0,1.1,0.9,1.8,2,1.8c0.7,0,1.5-0.2,2-0.6v2.1
	c-0.6,0.3-1.3,0.4-2,0.4c-2.2,0-3.9-1.4-3.9-3.7c0-1.9,1.5-3.6,3.4-3.6c1.3,0,2.6,0.5,2.6,2C27.5,17.1,26.9,17.7,26.1,17.7z"/>
</svg>
