<?xml version="1.0" encoding="utf-8"?>
<!-- Generator: Adobe Illustrator 18.1.1, SVG Export Plug-In . SVG Version: 6.00 Build 0)  -->
<!DOCTYPE svg PUBLIC "-//W3C//DTD SVG 1.1//EN" "http://www.w3.org/Graphics/SVG/1.1/DTD/svg11.dtd">
<svg version="1.1" id="icons" xmlns="http://www.w3.org/2000/svg" xmlns:xlink="http://www.w3.org/1999/xlink" x="0px" y="0px"
	 viewBox="0 0 30 30" style="enable-background:new 0 0 30 30;" xml:space="preserve">
<style type="text/css">
	.st0{fill:#666766;}
</style>
<path id="icon-numbers" class="st0" d="M7.9,22.3H5.6v-8.1C4.9,15.4,3.7,16,2.5,16v-2.7c1.7,0,3.1-1.6,3.1-3.6h2.3V22.3z M18.1,22
	c-0.5,0.4-1.2,0.5-1.8,0.5c-1,0-1.9-0.7-2.9-0.7c-0.9,0-1.2,0.2-1.9,0.7l-1.1-2.4c1.5-1.1,5.1-4,5.1-6.3c0-1.2-0.5-2-1.6-2
	c-0.9,0-1.5,0.8-1.5,1.8c0,0.7,0.2,1,0.7,1.3l-1.4,1.9c-1-0.8-1.6-1.8-1.6-3.2c0-2.4,1.8-4.2,3.8-4.2c2.4,0,3.9,1.6,3.9,4.4
	c0,2.3-1.9,4.5-3.4,5.7c0.1,0,0.2,0,0.2,0c0.7,0,1.2,0.5,1.9,0.5c0.7,0,1.1-0.1,1.6-0.6V22z M23.6,22.4c-1.6,0-3-0.9-3.9-2.4
	l1.6-1.9c0.6,1,1.2,1.8,2.3,1.8c0.9,0,1.6-0.8,1.6-1.8c0-1-0.5-1.7-1.4-1.7c-0.4,0-0.8,0.2-1,0.6l-1.4-2.1l2.5-2.6h-4V9.7h6.7v2.5
	l-2.2,2.3c1.7,0,3,1.8,3,3.7C27.5,20.8,25.8,22.4,23.6,22.4z"/>
</svg>
