<?xml version="1.0" encoding="utf-8"?>
<!-- Generator: Adobe Illustrator 18.1.1, SVG Export Plug-In . SVG Version: 6.00 Build 0)  -->
<!DOCTYPE svg PUBLIC "-//W3C//DTD SVG 1.1//EN" "http://www.w3.org/Graphics/SVG/1.1/DTD/svg11.dtd">
<svg version="1.1" id="icons" xmlns="http://www.w3.org/2000/svg" xmlns:xlink="http://www.w3.org/1999/xlink" x="0px" y="0px"
	 viewBox="0 0 30 30" style="enable-background:new 0 0 30 30;" xml:space="preserve">
<style type="text/css">
	.st0{fill:#666766;}
</style>
<path id="icon-calendar-day" class="st0" d="M3,3v24h24V3H3z M24.8,5.2v3.4H5.2V5.2H24.8z M5.2,24.8V10.8h19.6v14.1H5.2z M13,21.9
	h-1.7v-5.2c-0.5,0.8-1.4,1.2-2.4,1.2v-1.8c1.3,0,2.3-1.1,2.4-2.4H13V21.9z M17.7,22c-1.3,0-2.2-0.6-3-1.5l1.2-1.2
	c0.4,0.7,0.9,1.2,1.8,1.2c0.7,0,1.3-0.5,1.3-1.2c0-0.7-0.4-1.1-1.1-1.1c-0.3,0-0.6,0.1-0.8,0.4l-1-1.4l1.9-1.7h-3v-1.6H20v1.6
	l-1.7,1.5c1.3,0,2.3,1.2,2.3,2.4C20.6,20.9,19.3,22,17.7,22z"/>
</svg>
