<?xml version="1.0" encoding="utf-8"?>
<!-- Generator: Adobe Illustrator 18.1.1, SVG Export Plug-In . SVG Version: 6.00 Build 0)  -->
<!DOCTYPE svg PUBLIC "-//W3C//DTD SVG 1.1//EN" "http://www.w3.org/Graphics/SVG/1.1/DTD/svg11.dtd">
<svg version="1.1" id="icons" xmlns="http://www.w3.org/2000/svg" xmlns:xlink="http://www.w3.org/1999/xlink" x="0px" y="0px"
	 viewBox="0 0 30 30" style="enable-background:new 0 0 30 30;" xml:space="preserve">
<style type="text/css">
	.st0{fill:#CCCCCC;}
</style>
<path id="icon-calendar-month_1_" class="st0" d="M3,3v24h24V3H3z M24.8,5.2v3.4H5.2V5.2H24.8z M5.2,24.8V10.8h19.6v14.1H5.2z
	 M11.1,15c0-0.6-0.5-0.8-1-0.8c-0.6,0-1.2,0.3-1.2,1c0,0.5,0.4,0.9,1.1,1.4c0.9,0.6,1.9,1.4,1.9,2.7c0,1.2-0.9,2.1-2.2,2.1
	c-0.5,0-0.8-0.1-1.2-0.3L8.3,21v-2l0.6,0.6c0.3,0.2,0.5,0.3,0.8,0.3c0.3,0,0.7-0.2,0.7-0.6c0-0.6-0.6-1-1.2-1.5
	c-0.8-0.6-1.8-1.3-1.8-2.6c0-1.5,1.2-2.5,2.8-2.5c1.3,0,2.6,0.8,2.6,2.4c0,0.7-0.4,1.4-1.2,1.8l-0.2,0.1l-1.1-1.1l0.4-0.2
	C11.1,15.4,11.1,15.2,11.1,15z M16.9,17.7c-0.5-0.7-1.2-1-2-1c-1.3,0-2.4,1.1-2.4,2.4c0,1.4,1.1,2.4,2.5,2.4c0.4,0,0.9-0.1,1.4-0.3
	l0.2-0.1v-1.8l-0.6,0.5C15.7,20,15.3,20.1,15,20l2.1-2.1L16.9,17.7z M14.9,18.1C14.9,18.1,15,18.1,14.9,18.1L14,19c0,0,0,0,0,0
	C14,18.6,14.4,18.1,14.9,18.1z M20.2,16.6c-0.4,0-0.7,0.1-1.1,0.3v-0.2h-1.5v7.1h1.5v-2.6c0.3,0.2,0.7,0.3,1.1,0.3
	c1.3,0,2.3-1.1,2.3-2.4C22.5,17.7,21.5,16.6,20.2,16.6z M19.2,19.4C19.1,19.4,19.1,19.4,19.2,19.4C19.1,19.4,19.1,19.4,19.2,19.4
	l0-0.6c0,0,0-0.1,0.1-0.2c0.2-0.3,0.5-0.6,0.9-0.6c0.5,0,0.9,0.4,0.9,1c0,0.5-0.4,1-0.9,1C19.7,20,19.3,19.8,19.2,19.4z"/>
</svg>
