<?xml version="1.0" encoding="utf-8"?>
<!-- Generator: Adobe Illustrator 18.1.1, SVG Export Plug-In . SVG Version: 6.00 Build 0)  -->
<!DOCTYPE svg PUBLIC "-//W3C//DTD SVG 1.1//EN" "http://www.w3.org/Graphics/SVG/1.1/DTD/svg11.dtd">
<svg version="1.1" id="Layer_1" xmlns="http://www.w3.org/2000/svg" xmlns:xlink="http://www.w3.org/1999/xlink" x="0px" y="0px"
	 viewBox="0 0 30 30" style="enable-background:new 0 0 30 30;" xml:space="preserve">
<path id="icon-at" d="M27.1,15c0-6.6-5.4-12-12-12s-12,5.4-12,12s5.4,12,12,12c2.4,0,4.8-0.7,6.8-2.1l-1.2-1.8
	c-1.6,1.1-3.6,1.7-5.5,1.7c-5.4,0-9.8-4.4-9.8-9.8s4.4-9.8,9.8-9.8s9.8,4.4,9.8,9.8c0,1-0.1,1.9-0.4,2.8c-1.3-0.5-2.2-1.6-2.2-2.8
	c0-3.9-3.2-7.1-7.1-7.1S8,11.1,8,15s3.2,7.1,7.1,7.1c2.7,0,5.1-1.5,6.3-3.8c1.1,1.2,2.7,1.9,4.5,1.9c0,0,0.2-0.6,0.3-0.8
	C26.8,18.1,27.1,16.6,27.1,15z M15.2,19.9c-2.7,0-4.9-2.2-4.9-4.9s2.2-4.9,4.9-4.9s4.9,2.2,4.9,4.9S17.9,19.9,15.2,19.9z"/>
</svg>
