<?xml version="1.0" encoding="utf-8"?>
<!-- Generator: Adobe Illustrator 18.1.1, SVG Export Plug-In . SVG Version: 6.00 Build 0)  -->
<!DOCTYPE svg PUBLIC "-//W3C//DTD SVG 1.1//EN" "http://www.w3.org/Graphics/SVG/1.1/DTD/svg11.dtd">
<svg version="1.1" id="Layer_1" xmlns="http://www.w3.org/2000/svg" xmlns:xlink="http://www.w3.org/1999/xlink" x="0px" y="0px"
	 viewBox="0 0 100 170" enable-background="new 0 0 100 170" xml:space="preserve">
<path fill="#FFFFFF" d="M98,52C98,25.5,76.5,4,50,4C23.5,4,2,25.5,2,52c0,24.7,18.8,45.2,42.9,47.7v15.1h-1.1c-2.8,0-5,2.3-5,5v42.8
	c0,2.8,2.3,5,5,5h1.1h10.3h1.1c2.8,0,5-2.3,5-5v-42.8c0-2.8-2.3-5-5-5h-1.1V99.7C79.2,97.1,98,76.7,98,52z M12.4,57.4h17.1V47.1
	H12.3c2.2-17,15.6-30.5,32.5-32.8v17.2h10.3V14.3c16.9,2.3,30.4,15.8,32.6,32.8H70.3v10.3h17.4c-2.4,16.7-15.7,30-32.5,32.3V72.3
	H44.9v17.4C28.1,87.3,14.8,74.1,12.4,57.4z"/>
</svg>
