<?xml version="1.0" encoding="utf-8"?>
<!-- Generator: Adobe Illustrator 18.1.1, SVG Export Plug-In . SVG Version: 6.00 Build 0)  -->
<!DOCTYPE svg PUBLIC "-//W3C//DTD SVG 1.1//EN" "http://www.w3.org/Graphics/SVG/1.1/DTD/svg11.dtd">
<svg version="1.1" id="icons" xmlns="http://www.w3.org/2000/svg" xmlns:xlink="http://www.w3.org/1999/xlink" x="0px" y="0px"
	 viewBox="0 0 30 30" style="enable-background:new 0 0 30 30;" xml:space="preserve">
<style type="text/css">
	.st0{fill:#999999;}
</style>
<path id="icon-flag" class="st0" d="M3.5,6v18h23V6H3.5z M24.5,10h-11V8h11V10z M24.5,16v2h-19v-2H24.5z M13.5,14v-2h11v2H13.5z
	 M11.5,8v6h-6V8H11.5z M5.5,22v-2h19v2H5.5z M7.3,12.9l0.3-1.4l-1.1-1l1.5-0.2L8.5,9l0.6,1.3l1.5,0.2l-1.1,1l0.3,1.4l-1.3-0.7
	L7.3,12.9z"/>
</svg>
