<?xml version="1.0" encoding="utf-8"?>
<!-- Generator: Adobe Illustrator 18.1.1, SVG Export Plug-In . SVG Version: 6.00 Build 0)  -->
<!DOCTYPE svg PUBLIC "-//W3C//DTD SVG 1.1//EN" "http://www.w3.org/Graphics/SVG/1.1/DTD/svg11.dtd">
<svg version="1.1" id="icons" xmlns="http://www.w3.org/2000/svg" xmlns:xlink="http://www.w3.org/1999/xlink" x="0px" y="0px"
	 viewBox="0 0 30 30" style="enable-background:new 0 0 30 30;" xml:space="preserve">
<style type="text/css">
	.st0{fill:#999999;}
</style>
<path id="icon-calendar-week" class="st0" d="M3,3v24h24V3H3z M24.8,5.2v3.4H5.2V5.2H24.8z M5.2,24.8V10.8h19.6v14.1H5.2z
	 M14.6,18.9c0,1.8-1.2,3-2.9,3c-1.2,0-2.2-0.5-3-1.6l-0.2-0.3l1.3-1.3l0.3,0.4c0.5,0.7,1,1,1.7,1c0.6,0,1.1-0.5,1.1-1.3
	c0-0.8-0.6-1.1-1.1-1.1c-0.6,0-1,0.2-1.3,0.7l-0.2,0.3l-1.4-0.8l0.7-4.8h4.6V15h-3.2l-0.2,1.2c0.3-0.1,0.6-0.2,1-0.2
	C13.4,16.1,14.6,17.3,14.6,18.9z M21.3,19.5v2l-0.2,0.1c-0.4,0.2-0.9,0.3-1.3,0.3c-0.4,0-0.8-0.1-1.1-0.3c-0.3-0.1-0.6-0.2-0.8-0.2
	c-0.4,0-0.7,0.1-1.2,0.4l-0.4,0.2l-0.8-1.6l0.3-0.2c0.8-0.5,3.6-2.4,3.6-4.1c0-0.5-0.2-1.3-1.2-1.3c-0.6,0-1.1,0.5-1.1,1.1
	c0,0.4,0.1,0.7,0.4,0.8l0.3,0.2l-1.1,1.4l-0.3-0.2c-0.7-0.5-1.1-1.3-1.1-2.2c0-1.6,1.3-2.9,2.8-2.9c1.8,0,2.9,1.2,2.9,3.1
	c0,1.6-1.2,3-2.1,3.8c0.1,0,0.2,0.1,0.2,0.1c0.6,0.2,1,0.2,1.5-0.1L21.3,19.5z"/>
</svg>
