<?xml version="1.0" encoding="utf-8"?>
<!-- Generator: Adobe Illustrator 18.1.1, SVG Export Plug-In . SVG Version: 6.00 Build 0)  -->
<!DOCTYPE svg PUBLIC "-//W3C//DTD SVG 1.1//EN" "http://www.w3.org/Graphics/SVG/1.1/DTD/svg11.dtd">
<svg version="1.1" id="icons" xmlns="http://www.w3.org/2000/svg" xmlns:xlink="http://www.w3.org/1999/xlink" x="0px" y="0px"
	 viewBox="0 0 30 30" style="enable-background:new 0 0 30 30;" xml:space="preserve">
<style type="text/css">
	.st0{fill:#FFFFFF;}
</style>
<path id="icon-eye-shut" class="st0" d="M15,22.7c-6.1,0-11.7-6.3-12-6.5L2,15l1-1.2c0.2-0.3,5.8-6.5,12-6.5s11.7,6.3,12,6.5l1,1.2
	l-1,1.2C26.7,16.5,21.1,22.7,15,22.7z M5,15c2,2,5.9,5.6,10,5.6S23,17,25,15c-2-2-5.9-5.6-10-5.6S7,13,5,15z M18.8,13L17,11.2l-2,2
	l-2-2L11.2,13l2,2l-2,2l1.8,1.8l2-2l2,2l1.8-1.8l-2-2L18.8,13z"/>
</svg>
