<?xml version="1.0" encoding="utf-8"?>
<!-- Generator: Adobe Illustrator 18.1.1, SVG Export Plug-In . SVG Version: 6.00 Build 0)  -->
<!DOCTYPE svg PUBLIC "-//W3C//DTD SVG 1.1//EN" "http://www.w3.org/Graphics/SVG/1.1/DTD/svg11.dtd">
<svg version="1.1" id="icons" xmlns="http://www.w3.org/2000/svg" xmlns:xlink="http://www.w3.org/1999/xlink" x="0px" y="0px"
	 viewBox="0 0 30 30" style="enable-background:new 0 0 30 30;" xml:space="preserve">
<style type="text/css">
	.st0{fill:#FFFFFF;}
</style>
<path id="icon-list-bullets" class="st0" d="M8,6.2h17.5v2.5H8V6.2z M8,16.3h17.5v-2.5H8V16.3z M8,23.8h17.5v-2.5H8V23.8z M1.5,7.4
	C1.5,8.3,2.2,9,3.1,9s1.6-0.7,1.6-1.6S4,5.8,3.1,5.8S1.5,6.5,1.5,7.4z M1.5,15c0,0.9,0.7,1.6,1.6,1.6s1.6-0.7,1.6-1.6
	S4,13.4,3.1,13.4S1.5,14.1,1.5,15z M1.5,22.6c0,0.9,0.7,1.6,1.6,1.6s1.6-0.7,1.6-1.6S4,21,3.1,21S1.5,21.7,1.5,22.6z"/>
</svg>
